<?xml version="1.0" standalone="no"?>
<!DOCTYPE svg PUBLIC "-//W3C//DTD SVG 20010904//EN"
 "http://www.w3.org/TR/2001/REC-SVG-20010904/DTD/svg10.dtd">
<svg version="1.0" xmlns="http://www.w3.org/2000/svg"
 width="747.000000pt" height="1280.000000pt" viewBox="0 0 747.000000 1280.000000"
 preserveAspectRatio="xMidYMid meet">
<g transform="translate(0.000000,1280.000000) scale(0.100000,-0.100000)"
fill="#000000" stroke="none">
<path d="M3485 12594 c-384 -41 -879 -194 -1270 -394 -370 -190 -669 -402
-890 -631 -201 -210 -333 -368 -472 -568 -21 -30 -47 -67 -58 -81 -198 -268
-391 -688 -500 -1091 -79 -291 -125 -610 -125 -864 0 -129 23 -414 46 -565 41
-277 116 -546 239 -865 59 -153 230 -488 323 -631 6 -10 18 -30 24 -44 17 -35
325 -538 352 -575 56 -75 192 -317 278 -490 82 -168 162 -340 163 -355 1 -3
18 -55 38 -117 67 -203 100 -397 112 -653 18 -398 41 -458 290 -773 73 -92
109 -129 133 -137 39 -14 43 -29 5 -22 -25 5 -27 4 -14 -11 7 -10 9 -17 4 -17
-14 0 -16 -120 -2 -177 13 -56 48 -152 62 -171 6 -7 10 -50 10 -95 -1 -103 10
-125 87 -174 l61 -38 -6 -60 c-3 -33 -13 -82 -21 -108 -13 -39 -14 -51 -3 -63
11 -13 10 -15 -2 -13 -7 2 -38 -6 -66 -19 -39 -16 -54 -29 -59 -48 -10 -41 10
-70 86 -119 l70 -47 0 -51 c-1 -29 -8 -70 -16 -92 -9 -22 -16 -49 -17 -60 -2
-21 -50 -54 -80 -55 -9 0 -22 -11 -29 -24 -16 -36 17 -92 78 -134 87 -59 87
-59 80 -105 -11 -70 -28 -117 -43 -117 -7 0 -13 -7 -13 -15 0 -8 -4 -15 -10
-15 -5 0 -10 -4 -10 -9 0 -5 10 -7 22 -4 23 4 23 4 3 -12 -11 -9 -31 -18 -45
-21 -42 -9 -55 -20 -58 -52 -4 -37 47 -99 115 -139 38 -22 43 -29 43 -60 0
-52 -20 -120 -41 -139 -10 -9 -19 -23 -19 -29 0 -7 -7 -18 -15 -25 -28 -23
-18 -68 24 -108 21 -20 81 -89 134 -152 113 -139 190 -207 389 -350 34 -25 86
-67 114 -95 44 -42 53 -57 59 -98 7 -56 21 -67 121 -101 129 -44 309 -116 372
-148 53 -27 66 -39 83 -77 48 -108 94 -126 324 -126 137 0 180 3 221 18 67 23
110 62 127 116 16 48 15 48 167 120 121 57 207 93 303 126 38 12 73 27 78 32
5 5 13 32 18 60 4 30 20 67 39 94 30 42 53 61 227 192 39 29 81 62 95 72 14
11 65 60 113 109 94 97 135 166 140 231 2 37 0 40 -22 37 -33 -5 -18 15 26 33
48 20 120 80 144 119 10 17 19 48 19 70 0 34 -7 45 -59 95 -60 57 -91 104 -91
140 0 11 -8 21 -17 23 -13 2 -1 16 41 48 76 58 115 107 123 154 6 35 3 40 -55
94 -63 60 -102 115 -102 145 0 10 -7 20 -15 23 -21 8 -9 21 70 80 71 52 112
116 100 156 -4 13 -33 48 -65 79 -56 54 -90 110 -90 149 0 10 -8 20 -17 22
-21 4 -18 6 74 73 114 82 121 140 30 250 l-24 29 26 71 c24 65 26 85 29 269
l4 199 -29 -7 c-15 -3 0 7 35 23 46 22 62 35 62 50 0 12 -7 21 -15 21 -8 0
-15 3 -15 6 0 3 45 66 101 140 283 380 296 420 309 934 8 337 14 391 64 585
70 276 211 602 442 1020 81 147 353 690 422 840 277 609 406 1266 357 1824
-47 541 -160 962 -375 1391 -274 546 -653 998 -1135 1352 -475 349 -1111 602
-1759 699 -126 19 -484 33 -581 23z m165 -169 c0 -1 -35 -3 -77 -4 -117 -2
-258 -21 -438 -60 -56 -12 -135 -30 -165 -36 l-25 -6 25 11 c114 51 680 130
680 95z m70 11 c0 -2 -13 -6 -29 -8 -17 -2 -28 -1 -25 4 5 8 54 12 54 4z m375
-25 c176 -23 288 -41 282 -48 -3 -2 -45 3 -93 11 -149 26 -263 38 -404 46
l-135 7 100 1 c55 1 168 -7 250 -17z m-706 -24 c-9 -7 -58 -21 -110 -32 -65
-14 -85 -21 -64 -23 17 -2 35 -10 42 -19 10 -13 19 -14 57 -4 25 6 84 10 133
9 l88 -1 -105 -7 c-122 -8 -172 -18 -167 -34 2 -6 23 -10 48 -9 l44 1 -39 -10
c-35 -10 -41 -9 -57 11 -19 23 -30 26 -57 12 -9 -5 -60 -14 -112 -21 -52 -7
-124 -20 -160 -30 -53 -14 -67 -15 -77 -5 -9 10 -9 14 3 19 9 3 12 1 9 -4 -9
-14 23 -12 81 4 27 8 92 20 144 26 52 7 103 16 112 21 10 5 25 9 33 9 8 0 15
4 15 10 0 10 -108 8 -126 -2 -14 -9 -100 -21 -93 -14 4 4 19 9 35 12 16 2 47
12 69 20 22 9 87 27 144 40 57 12 106 26 109 29 3 3 8 5 11 5 3 0 -1 -6 -10
-13z m1034 -34 c-7 -2 -19 -2 -25 0 -7 3 -2 5 12 5 14 0 19 -2 13 -5z m-293
-23 c28 -8 25 -8 -18 -4 -29 3 -65 10 -80 15 -35 11 47 2 98 -11z m337 14 c-3
-3 -12 -4 -19 -1 -8 3 -5 6 6 6 11 1 17 -2 13 -5z m-860 -11 c-3 -3 -22 -5
-42 -5 -20 0 -39 2 -41 5 -3 3 15 5 41 5 26 0 44 -2 42 -5z m1031 -35 c51 -16
92 -32 89 -34 -2 -2 -44 9 -93 25 -49 16 -105 34 -124 40 l-35 10 35 -5 c19
-3 77 -19 128 -36z m-1014 3 c-23 -23 -243 -35 -264 -15 -2 3 29 3 70 1 84 -5
190 10 190 26 0 6 3 7 7 4 4 -4 2 -11 -3 -16z m474 3 c23 -4 42 -10 42 -14 0
-9 -120 17 -130 27 -3 3 6 3 20 -1 14 -3 44 -9 68 -12z m107 5 c4 -6 24 -8 49
-5 l41 5 -34 -10 c-25 -8 -41 -7 -57 1 -12 7 -28 9 -35 5 -8 -5 -10 -4 -5 3 9
15 33 15 41 1z m-367 -6 c-10 -2 -18 -9 -18 -15 0 -6 9 -8 20 -5 11 3 18 1 14
-4 -7 -12 -31 -11 -39 1 -9 15 4 30 23 29 15 -1 15 -2 0 -6z m170 -20 c5 -17
-26 -29 -40 -15 -6 6 -7 15 -3 22 9 14 37 9 43 -7z m442 2 c106 -15 128 -24
115 -45 -5 -8 -22 -10 -49 -6 -22 3 -102 10 -176 16 -74 6 -148 15 -165 20
-30 10 -30 10 5 5 19 -3 94 -10 165 -15 72 -6 149 -13 173 -16 28 -4 42 -3 42
5 0 6 -1 11 -3 11 -19 0 -222 32 -226 35 -6 7 2 6 119 -10z m-1437 -2 c-7 -2
-19 -2 -25 0 -7 3 -2 5 12 5 14 0 19 -2 13 -5z m-46 -9 c-3 -3 -12 -4 -19 -1
-8 3 -5 6 6 6 11 1 17 -2 13 -5z m1813 -29 c14 -8 21 -14 15 -14 -5 0 -21 6
-35 14 -14 8 -20 14 -15 14 6 0 21 -6 35 -14z m74 -30 c20 -8 36 -18 36 -20 0
-5 -70 22 -79 30 -8 9 6 5 43 -10z m-2084 -41 c-182 -54 -217 -67 -289 -106
-41 -23 -72 -37 -68 -32 21 35 347 160 422 162 11 0 -18 -11 -65 -24z m2198
-13 c31 -15 68 -31 82 -34 23 -6 133 -77 118 -77 -3 0 -29 16 -58 35 -29 19
-59 35 -69 35 -16 1 -152 69 -138 70 4 0 33 -13 65 -29z m-1163 0 c0 -8 -6
-15 -13 -17 -7 -1 -8 0 -2 3 5 2 10 9 10 14 0 15 -26 10 -40 -6 -7 -9 -19 -14
-26 -11 -9 3 -14 -7 -17 -32 l-4 -37 -1 43 c-2 35 -5 42 -22 42 -14 0 -20 -7
-21 -22 l-2 -23 -4 23 c-2 12 -11 22 -19 22 -15 0 -19 -15 -6 -23 4 -2 1 -2
-6 0 -11 2 -12 -9 -7 -50 6 -47 4 -54 -17 -72 l-23 -20 19 22 c16 20 18 30 10
75 -11 63 -35 73 -45 18 l-6 -35 -2 31 c-1 38 22 62 43 45 10 -9 15 -8 19 4 5
11 19 14 52 12 26 -2 48 0 50 4 3 3 21 6 42 5 26 -1 38 -6 38 -15z m-355 -31
c-13 -9 -13 -11 0 -20 12 -7 10 -9 -8 -7 -12 0 -22 5 -22 9 0 4 -5 8 -11 8 -7
0 -9 -9 -6 -21 4 -16 3 -19 -5 -11 -15 15 -1 45 17 38 8 -3 17 -1 20 4 4 6 12
10 18 10 7 0 6 -4 -3 -10z m-74 -32 c4 -6 0 -16 -8 -22 -9 -6 -18 -20 -21 -31
-3 -13 -5 -8 -6 13 -1 47 -34 41 -42 -8 l-6 -35 -2 31 c-1 33 11 49 44 57 32
8 33 8 41 -5z m318 -21 c7 -6 6 -7 -4 -4 -8 2 -16 12 -17 23 -2 13 -1 15 4 4
3 -8 11 -19 17 -23z m-117 -54 c-3 -10 -5 -2 -5 17 0 19 2 27 5 18 2 -10 2
-26 0 -35z m1547 12 c11 -8 15 -15 9 -15 -7 0 -15 5 -18 10 -8 12 -35 13 -35
1 0 -7 77 -48 150 -80 24 -10 23 -10 -5 -4 -65 14 -162 73 -151 91 10 16 27
15 50 -3z m81 5 c3 -6 -1 -7 -9 -4 -18 7 -21 14 -7 14 6 0 13 -4 16 -10z
m-2805 -15 c0 -2 -18 -14 -40 -25 -22 -11 -40 -18 -40 -15 0 2 17 13 38 24 42
23 42 23 42 16z m2849 -25 c45 -17 37 -33 -9 -19 -14 4 -18 8 -10 9 9 1 5 5
-9 11 -17 7 -27 6 -31 -2 -5 -7 -9 -5 -14 6 -3 9 -11 13 -17 9 -8 -4 -9 -3 -5
5 8 13 21 10 95 -19z m-1919 -45 c8 0 18 13 21 30 7 29 7 29 8 3 0 -14 4 -28
9 -31 4 -2 2 -3 -4 -1 -6 1 -16 -2 -22 -8 -17 -17 -42 9 -41 41 1 25 2 25 8
-4 3 -17 13 -30 21 -30z m161 38 c13 -16 12 -17 -3 -4 -16 12 -20 10 -36 -9
-14 -17 -24 -21 -41 -15 -18 5 -20 9 -10 22 7 8 21 12 31 10 10 -3 21 -1 24 4
8 14 20 11 35 -8z m193 -12 c4 -5 -3 -7 -14 -4 -14 4 -20 0 -20 -10 0 -23 18
-31 38 -16 16 12 16 12 0 -6 -13 -14 -20 -16 -31 -7 -8 7 -18 8 -22 4 -5 -4
-6 -2 -3 3 3 6 8 18 11 28 7 18 32 23 41 8z m-1402 -21 c-42 -26 -56 -26 -17
0 17 11 35 20 40 20 6 0 -5 -9 -23 -20z m1504 2 c1 -7 0 -8 -3 -2 -6 13 -33
13 -33 0 0 -5 5 -10 12 -10 6 0 9 -2 6 -5 -3 -3 -13 -3 -22 1 -13 5 -14 9 -5
21 14 16 41 14 45 -5z m50 7 c10 -17 -13 -36 -27 -22 -12 12 -4 33 11 33 5 0
12 -5 16 -11z m-218 -6 c-21 -5 -23 -19 -5 -26 9 -4 9 -6 0 -6 -15 -1 -26 16
-18 29 3 6 14 9 23 9 15 -1 15 -2 0 -6z m1689 1 c-3 -3 -12 -4 -19 -1 -8 3 -5
6 6 6 11 1 17 -2 13 -5z m-3102 -37 c-16 -7 -50 -23 -75 -36 -25 -13 -40 -19
-35 -13 17 17 109 62 125 61 8 0 2 -6 -15 -12z m3155 -22 c36 -19 61 -34 57
-35 -4 0 -31 12 -60 26 -29 15 -63 30 -77 35 -20 6 -21 7 -5 8 11 0 49 -15 85
-34z m-3281 -40 c-9 -8 -79 -35 -79 -30 0 3 15 11 33 19 32 15 54 20 46 11z
m3503 -68 c53 -25 98 -49 101 -54 3 -4 -53 20 -124 54 -71 35 -129 65 -129 68
0 3 13 -1 28 -9 16 -8 72 -35 124 -59z m-3642 3 c-30 -16 -59 -29 -65 -29 -5
0 15 13 45 29 30 16 60 29 65 29 6 0 -15 -13 -45 -29z m-105 -50 c-3 -5 -10
-10 -15 -10 -4 0 -38 -18 -75 -41 -37 -22 -69 -39 -71 -36 -2 2 19 17 48 33
28 16 65 37 82 47 35 20 39 21 31 7z m3916 -56 c9 -11 2 -9 -18 6 -18 13 -33
25 -33 27 0 8 38 -17 51 -33z m142 -100 c26 -23 47 -45 47 -49 0 -4 -24 14
-54 41 -29 27 -64 57 -77 67 -23 17 -23 17 7 0 17 -10 52 -37 77 -59z m-4233
62 c0 -2 -16 -13 -35 -25 -19 -11 -35 -18 -35 -16 0 5 61 45 68 45 1 0 2 -2 2
-4z m-80 -51 c0 -2 -24 -20 -52 -40 -29 -19 -120 -101 -203 -182 -82 -82 -122
-119 -90 -83 118 128 221 227 280 267 64 45 65 45 65 38z m1429 -89 c13 -14
21 -32 18 -43 -4 -16 -5 -15 -6 3 0 11 -10 29 -21 39 -18 16 -24 16 -67 5 -27
-7 -99 -38 -162 -67 -62 -30 -115 -53 -117 -50 -5 5 190 97 251 118 68 23 78
23 104 -5z m3006 -30 c6 -4 1 -4 -10 2 -11 6 -29 21 -40 34 -19 22 -19 22 10
-2 17 -14 35 -29 40 -34z m39 -22 c4 -10 12 -14 24 -9 14 5 15 4 4 -7 -10 -10
-16 -8 -34 10 -12 12 -17 22 -11 22 6 0 14 -7 17 -16z m-3037 -46 c-3 -7 -5
-2 -5 12 0 14 2 19 5 13 2 -7 2 -19 0 -25z m3090 15 c-4 -4 5 -20 20 -37 l28
-31 -32 29 c-28 25 -35 46 -16 46 4 0 3 -3 0 -7z m-3512 -59 c-27 -13 -75 -35
-105 -49 -30 -14 -66 -33 -80 -41 -16 -11 -14 -8 5 7 30 24 201 108 220 108 6
-1 -12 -11 -40 -25z m414 -80 c-16 -18 -32 -24 -58 -22 l-36 1 35 4 c51 6 70
28 72 82 l1 46 4 -44 c3 -35 0 -48 -18 -67z m3242 9 l34 -38 -40 35 c-22 19
-42 36 -44 38 -2 1 0 2 5 2 6 0 26 -17 45 -37z m-3871 -38 c0 -2 -10 -9 -22
-15 -22 -11 -22 -10 -4 4 21 17 26 19 26 11z m510 -5 c-14 -4 -34 -8 -45 -8
-16 0 -15 2 5 8 14 4 34 8 45 8 16 0 15 -2 -5 -8z m3494 -92 c17 -15 27 -30
24 -33 -6 -6 -118 118 -118 131 0 4 15 -10 33 -32 17 -21 45 -51 61 -66z
m-3579 73 c-11 -5 -36 -11 -55 -14 -35 -6 -34 -6 5 8 43 14 84 19 50 6z
m-1625 -14 c0 -2 -17 -19 -37 -38 l-38 -34 34 38 c33 34 41 42 41 34z m1095
-19 c-11 -6 -32 -20 -47 -30 -16 -11 -28 -17 -28 -14 0 8 73 56 85 56 5 0 1
-6 -10 -12z m405 -3 c-19 -7 -42 -13 -50 -13 -8 0 1 6 20 13 19 7 42 13 50 13
8 0 -1 -6 -20 -13z m-112 -40 c-26 -14 -51 -25 -55 -25 -14 0 71 48 87 49 8 1
-6 -10 -32 -24z m-392 -18 c-10 -7 -67 -49 -127 -95 -60 -46 -109 -81 -109
-78 0 5 196 157 225 174 26 15 35 14 11 -1z m-1114 -54 c-22 -26 -49 -56 -60
-66 -11 -11 -18 -25 -16 -32 3 -7 1 -15 -4 -19 -5 -3 -8 3 -7 14 1 10 26 47
56 80 30 34 56 66 58 72 1 5 5 7 8 4 3 -3 -13 -27 -35 -53z m5455 -63 c26 -32
17 -25 -30 23 -37 37 -67 69 -67 71 0 9 64 -52 97 -94z m-4119 51 c-105 -61
-181 -124 -347 -286 -123 -120 -161 -164 -193 -223 -23 -41 -58 -96 -79 -123
-22 -26 -39 -54 -40 -61 0 -10 -2 -10 -5 -1 -3 7 12 34 34 62 22 27 57 82 80
123 32 58 71 104 198 228 88 86 186 177 220 202 67 52 174 118 189 118 5 0
-20 -18 -57 -39z m-1483 -177 c-41 -61 -145 -261 -198 -382 -10 -23 -41 -92
-69 -154 -27 -61 -76 -180 -109 -262 -32 -83 -58 -145 -59 -139 0 16 118 315
168 424 21 46 47 104 58 129 65 155 239 469 252 455 2 -1 -18 -34 -43 -71z
m5749 -74 c68 -102 131 -210 123 -210 -3 0 -20 26 -37 58 -32 56 -120 192
-174 268 -28 39 -28 39 -2 9 15 -16 56 -73 90 -125z m-4850 18 c-65 -68 -122
-125 -125 -128 -3 -3 -29 -41 -59 -85 -49 -75 -84 -120 -65 -85 44 80 129 187
234 293 69 70 127 127 130 127 2 0 -49 -55 -115 -122z m3950 -73 c9 -14 15
-25 13 -25 -2 0 -13 11 -25 25 -12 14 -18 25 -13 25 5 0 16 -11 25 -25z m-64
-35 c-11 -22 -23 -40 -25 -40 -3 0 4 18 15 40 11 22 23 40 25 40 3 0 -4 -18
-15 -40z m130 -56 c18 -26 29 -45 24 -42 -5 4 -25 28 -44 54 -18 26 -29 45
-24 42 5 -4 25 -28 44 -54z m-194 -58 l-36 -64 43 -44 c279 -289 297 -308 123
-137 l-178 176 37 67 c20 36 39 66 42 66 2 0 -11 -29 -31 -64z m279 -56 c25
-33 44 -60 41 -60 -3 0 -26 27 -51 60 -25 33 -44 60 -41 60 3 0 26 -27 51 -60z
m960 -106 c37 -74 65 -137 63 -139 -1 -2 -35 62 -74 141 -40 79 -68 142 -64
139 4 -3 38 -66 75 -141z m-5357 -11 c-23 -43 -49 -89 -58 -103 -10 -14 -29
-49 -44 -77 -14 -29 -29 -53 -32 -53 -6 0 35 77 143 268 41 72 34 46 -9 -35z
m4497 -13 c25 -33 44 -60 41 -60 -3 0 -26 27 -51 60 -25 33 -44 60 -41 60 3 0
26 -27 51 -60z m-391 -85 c80 -91 95 -116 25 -41 -35 38 -70 79 -78 90 -8 12
-26 35 -40 51 -14 17 -10 14 9 -6 19 -21 57 -63 84 -94z m-134 110 c0 -8 -4
-15 -10 -15 -5 0 -7 7 -4 15 4 8 8 15 10 15 2 0 4 -7 4 -15z m-30 -19 c0 -2
-42 -40 -92 -86 l-93 -82 90 86 c88 84 95 90 95 82z m-3737 -91 c-3 -9 -8 -14
-10 -11 -3 3 -2 9 2 15 9 16 15 13 8 -4z m4396 -50 c47 -65 31 -56 -20 13 -23
31 -36 52 -28 45 8 -7 30 -33 48 -58z m-4473 -97 c-36 -62 -66 -109 -66 -104
0 11 124 225 128 221 2 -2 -26 -54 -62 -117z m5325 55 c11 -27 31 -70 44 -98
13 -27 26 -61 29 -75 l6 -25 -11 25 c-7 14 -22 48 -35 75 -41 90 -63 145 -58
145 2 0 14 -21 25 -47z m-2999 -43 c14 -30 29 -68 32 -85 5 -23 3 -21 -9 10
-9 22 -25 59 -36 82 l-21 42 -129 4 -129 3 132 -1 132 0 28 -55z m-337 34
c-48 -18 -54 -27 -56 -84 -2 -39 -3 -41 -6 -11 -7 54 4 81 40 96 18 8 39 14
47 14 8 0 -3 -7 -25 -15z m1846 -201 c17 -24 28 -43 25 -43 -3 0 -18 18 -33
39 -15 22 -66 82 -112 133 l-83 93 87 -90 c48 -49 100 -109 116 -132z m718
102 c0 -5 -11 10 -24 35 -13 25 -24 50 -24 55 0 6 11 -10 24 -35 13 -25 24
-49 24 -55z m-417 -12 c15 -24 26 -43 23 -43 -4 0 -74 102 -89 130 -12 24 37
-40 66 -87z m-4439 -10 c-62 -133 -67 -142 -71 -138 -2 2 3 16 11 32 8 15 30
63 50 106 20 42 39 77 42 77 3 0 -12 -35 -32 -77z m4622 37 c9 -16 13 -30 11
-30 -3 0 -12 14 -21 30 -9 17 -13 30 -11 30 3 0 12 -13 21 -30z m322 -217 c-4
-3 -75 149 -83 177 -2 8 16 -27 41 -79 25 -52 44 -95 42 -98z m-232 60 c37
-65 70 -121 72 -125 2 -5 2 -8 -1 -8 -2 0 -35 53 -71 118 -37 64 -70 120 -72
125 -2 4 -2 7 1 7 2 0 35 -53 71 -117z m-2485 57 l0 -50 -57 0 c-69 0 -214
-24 -275 -46 -24 -8 -61 -26 -83 -40 l-40 -25 30 26 c17 14 53 34 82 45 63 24
210 50 281 50 l52 0 0 45 c0 25 2 45 5 45 3 0 5 -22 5 -50z m459 -32 c1 -16 8
-28 19 -31 13 -4 11 -5 -5 -6 -19 -1 -23 4 -23 27 0 15 -3 38 -5 52 -5 22 -4
22 4 5 5 -11 10 -32 10 -47z m-2465 3 c-9 -23 -18 -40 -20 -38 -2 2 4 22 13
45 9 23 18 40 20 38 2 -2 -4 -22 -13 -45z m4307 -42 c16 -34 29 -63 27 -65 -2
-2 -18 26 -36 61 -17 36 -30 65 -27 65 3 0 19 -27 36 -61z m1214 -19 c14 -40
25 -78 24 -84 0 -10 -35 82 -54 146 -17 55 7 5 30 -62z m-2952 13 c-13 -2 -33
-2 -45 0 -13 2 -3 4 22 4 25 0 35 -2 23 -4z m1407 -33 c11 -22 18 -40 15 -40
-2 0 -14 18 -25 40 -11 22 -18 40 -15 40 2 0 14 -18 25 -40z m-4032 -53 c-17
-42 -33 -75 -35 -73 -2 2 10 38 28 80 18 42 34 75 36 73 1 -2 -11 -38 -29 -80z
m2758 72 c62 -11 96 -29 182 -92 40 -30 63 -59 97 -122 42 -77 45 -87 49 -176
l5 -94 -10 95 c-8 83 -15 104 -54 175 -32 59 -56 89 -92 115 -88 65 -119 80
-204 94 -46 8 -72 14 -58 15 14 1 52 -4 85 -10z m-3007 -38 c-6 -18 -13 -30
-15 -28 -2 2 1 18 7 36 6 18 13 30 15 28 2 -2 -1 -18 -7 -36z m-793 -42 c-18
-41 -21 -29 -4 18 7 19 14 30 16 25 1 -4 -4 -24 -12 -43z m5873 -54 c0 -5 -11
10 -24 35 -13 25 -24 50 -24 55 0 6 11 -10 24 -35 13 -25 24 -49 24 -55z
m-379 -48 c0 -5 18 -29 40 -53 33 -36 40 -50 38 -81 l-1 -38 -4 35 c-3 21 -20
52 -44 81 -21 26 -39 51 -39 56 0 5 -11 33 -25 61 -14 29 -25 55 -24 59 0 11
59 -108 59 -120z m-2850 108 c0 -2 -14 -20 -30 -39 -34 -38 -70 -113 -81 -166
-6 -31 -7 -32 -8 -8 -1 36 40 128 80 178 31 38 39 46 39 35z m-1884 -42 c-8
-15 -15 -25 -16 -21 0 12 23 58 27 54 3 -2 -2 -17 -11 -33z m5906 -50 c-2 -7
0 -13 4 -13 5 0 10 -17 11 -38 1 -37 1 -37 -8 -7 -5 17 -12 41 -14 55 -2 14
-7 36 -10 50 -5 21 -4 20 8 -5 8 -16 12 -36 9 -42z m-1522 5 c8 -24 22 -56 32
-73 20 -35 78 -191 77 -208 0 -7 -16 30 -34 81 -19 52 -43 110 -54 130 -26 50
-53 125 -43 118 5 -3 15 -24 22 -48z m538 21 c-3 -8 -7 -3 -11 10 -4 17 -3 21
5 13 5 -5 8 -16 6 -23z m-5701 -1 c-3 -8 -6 -5 -6 6 -1 11 2 17 5 13 3 -3 4
-12 1 -19z m744 -59 c-11 -24 -20 -41 -20 -37 -1 12 31 89 35 85 3 -2 -4 -24
-15 -48z m5183 -29 c5 -20 3 -19 -8 5 -7 17 -16 41 -20 55 -5 20 -3 19 8 -5 7
-16 16 -41 20 -55z m-5942 38 c-8 -8 -9 -4 -5 13 4 13 8 18 11 10 2 -7 -1 -18
-6 -23z m1008 -69 c-11 -35 -27 -90 -36 -122 -9 -31 -19 -56 -21 -53 -2 2 2
26 10 52 45 151 59 195 63 192 2 -2 -5 -33 -16 -69z m-1040 -63 c-16 -59 -32
-111 -36 -115 -3 -3 -4 3 -1 14 3 11 13 49 22 85 20 80 36 132 40 128 2 -2
-10 -52 -25 -112z m5839 -101 c0 -5 -16 35 -35 90 -19 54 -34 104 -33 110 0 5
16 -35 35 -90 19 -54 34 -104 33 -110z m-5088 90 c-11 -38 -20 -64 -20 -57 -1
19 32 148 36 137 1 -6 -6 -41 -16 -80z m6019 31 c0 -26 -6 -18 -14 19 -5 22
-4 26 4 15 5 -8 10 -24 10 -34z m-740 -81 c16 -49 28 -90 26 -92 -2 -3 -16 33
-31 79 -16 46 -30 90 -33 98 -3 8 -2 12 2 9 3 -3 20 -46 36 -94z m-3443 -287
c-1 -68 -3 -15 -3 117 0 132 2 187 3 123 2 -64 2 -172 0 -240z m4228 142 c14
-79 25 -154 24 -165 -1 -17 -45 217 -63 330 -15 99 15 -28 39 -165z m-1130 46
c5 -39 4 -39 -8 9 -7 28 -19 60 -25 72 -7 12 -12 28 -12 35 1 26 40 -76 45
-116z m-4961 25 c-4 -23 -9 -40 -11 -37 -3 3 -2 23 2 46 4 23 9 39 11 37 3 -2
2 -23 -2 -46z m-753 -8 c-17 -34 -51 -326 -46 -400 2 -32 -1 -39 -10 -30 -12
11 -16 37 -6 37 3 0 7 37 9 83 1 45 9 117 17 161 8 43 15 93 15 110 0 18 5 37
12 44 17 17 20 15 9 -5z m1006 -5 c-3 -8 -6 -5 -6 6 -1 11 2 17 5 13 3 -3 4
-12 1 -19z m4362 -47 c1 -35 -5 -22 -12 24 -5 28 -4 34 3 20 5 -11 9 -31 9
-44z m529 -6 c0 -16 -2 -15 -8 5 -11 34 -11 60 0 35 5 -11 8 -29 8 -40z
m-4907 -59 c-6 -35 -12 -112 -13 -172 l-2 -109 -4 90 c-3 85 18 311 26 272 2
-10 -1 -47 -7 -81z m3246 -159 c-1 -45 -3 -5 -3 88 0 94 2 130 3 82 2 -48 2
-125 0 -170z m1872 164 c2 -54 -6 -32 -12 34 -4 39 -3 50 2 30 5 -16 9 -45 10
-64z m-5374 29 c-9 -41 -17 -33 -9 9 4 17 9 30 11 27 3 -2 2 -19 -2 -36z
m4998 -85 c2 -49 1 -79 -3 -65 -8 24 -12 186 -5 165 2 -5 5 -50 8 -100z m-329
0 l6 -40 -14 45 c-7 25 -17 54 -20 65 -5 12 -2 10 7 -5 9 -14 18 -43 21 -65z
m503 -12 c-2 -21 -4 -6 -4 32 0 39 2 55 4 38 2 -18 2 -50 0 -70z m-5198 -24
c-6 -41 -15 -173 -18 -294 l-7 -220 -2 189 c-1 104 2 217 8 250 5 34 12 83 15
109 4 27 8 47 11 45 2 -3 -1 -38 -7 -79z m5435 -159 c3 -41 -2 -22 -14 50 -10
63 -18 126 -18 140 1 35 25 -111 32 -190z m-727 118 c-3 -7 -5 -2 -5 12 0 14
2 19 5 13 2 -7 2 -19 0 -25z m500 -75 c-2 -21 -4 -6 -4 32 0 39 2 55 4 38 2
-18 2 -50 0 -70z m-469 -158 c0 -22 -6 5 -14 60 -7 55 -13 114 -12 130 0 17 6
-10 13 -60 7 -49 13 -108 13 -130z m316 -200 c-1 -320 -2 -344 -22 -405 -12
-36 -22 -76 -23 -90 -1 -19 -2 -21 -6 -6 -3 10 5 53 18 95 22 72 23 92 23 386
1 171 -2 339 -6 375 -6 60 -6 62 5 25 8 -28 12 -145 11 -380z m1113 348 c-3
-10 -5 -4 -5 12 0 17 2 24 5 18 2 -7 2 -21 0 -30z m-4261 -965 c-14 -129 -44
-276 -45 -221 -1 12 4 34 10 50 25 61 38 305 41 718 l3 420 2 -412 c3 -309 0
-449 -11 -555z m4251 895 c-3 -10 -5 -2 -5 17 0 19 2 27 5 18 2 -10 2 -26 0
-35z m-940 -100 c-2 -27 -3 -5 -3 47 0 52 1 74 3 48 2 -27 2 -69 0 -95z
m-1680 -365 c-1 -90 -3 -19 -3 157 0 176 2 249 3 163 2 -86 2 -230 0 -320z
m-3280 340 c-2 -24 -4 -5 -4 42 0 47 2 66 4 43 2 -24 2 -62 0 -85z m5920 75
c-3 -10 -5 -4 -5 12 0 17 2 24 5 18 2 -7 2 -21 0 -30z m-6939 -18 c-3 -3 -9 2
-12 12 -6 14 -5 15 5 6 7 -7 10 -15 7 -18z m6199 -147 c-2 -35 -3 -9 -3 57 0
66 1 94 3 63 2 -32 2 -86 0 -120z m-6204 69 c2 -30 0 -54 -4 -51 -3 2 -7 29
-7 60 -1 71 8 65 11 -9z m6942 22 c-2 -23 -6 -43 -9 -46 -2 -3 -3 10 -2 29 5
53 6 58 11 58 2 0 2 -18 0 -41z m-1416 -403 c0 -77 -1 -137 -3 -135 -2 2 -6
123 -8 269 -4 174 -3 220 2 135 4 -71 8 -193 9 -269z m448 292 c-2 -18 -4 -6
-4 27 0 33 2 48 4 33 2 -15 2 -42 0 -60z m-4940 -15 c-2 -16 -4 -5 -4 22 0 28
2 40 4 28 2 -13 2 -35 0 -50z m5910 30 c-3 -10 -5 -4 -5 12 0 17 2 24 5 18 2
-7 2 -21 0 -30z m-6936 -31 c-6 -10 -8 -21 -6 -24 2 -2 7 -46 10 -98 3 -52 3
-92 0 -89 -5 5 -18 171 -16 197 1 6 2 21 3 32 1 11 6 16 11 11 5 -5 4 -17 -2
-29z m6927 -13 c-3 -8 -7 -3 -11 10 -4 17 -3 21 5 13 5 -5 8 -16 6 -23z m-973
-116 c-4 -41 -9 -73 -11 -70 -2 2 -1 44 3 93 4 49 9 80 11 70 2 -11 1 -52 -3
-93z m-4918 -10 c-2 -21 -4 -4 -4 37 0 41 2 58 4 38 2 -21 2 -55 0 -75z m5139
-76 c-13 -87 -63 -264 -65 -231 -1 6 8 37 19 70 22 62 49 221 52 301 l1 48 4
-43 c2 -23 -3 -89 -11 -145z m756 141 c-6 -6 -7 0 -4 19 5 21 7 23 10 9 2 -10
0 -22 -6 -28z m-6185 -75 c-2 -16 -4 -3 -4 27 0 30 2 43 4 28 2 -16 2 -40 0
-55z m6190 5 c-3 -7 -5 -2 -5 12 0 14 2 19 5 13 2 -7 2 -19 0 -25z m-6180 -85
c-3 -10 -5 -2 -5 17 0 19 2 27 5 18 2 -10 2 -26 0 -35z m309 -130 c-6 -6 -26
119 -25 153 1 16 7 -11 15 -60 7 -49 12 -91 10 -93z m5851 135 c-3 -7 -5 -2
-5 12 0 14 2 19 5 13 2 -7 2 -19 0 -25z m-982 -53 c-4 -31 -9 -54 -12 -51 -3
2 -1 30 2 61 4 31 9 54 12 51 3 -2 1 -30 -2 -61z m-5919 39 c-3 -9 -2 -33 4
-53 5 -20 12 -65 15 -101 4 -36 8 -76 11 -90 2 -14 7 -45 10 -70 4 -25 11 -52
17 -60 10 -13 9 -13 -5 0 -9 8 -19 35 -23 60 -3 25 -7 56 -10 70 -2 14 -6 54
-10 90 -3 36 -10 81 -15 101 -9 34 -5 69 7 69 3 0 2 -7 -1 -16z m768 -94 c4
-8 0 -6 -8 4 -9 11 -15 34 -15 50 1 31 1 31 8 -4 4 -20 11 -42 15 -50z m6131
-29 c-4 -34 -12 -61 -17 -61 -6 0 -8 -10 -5 -21 4 -16 3 -19 -5 -11 -9 9 -8
18 2 37 7 14 14 49 14 79 1 31 5 51 10 46 4 -4 5 -36 1 -69z m-1000 -46 c-4
-31 -9 -54 -12 -51 -3 2 -1 30 2 61 4 31 9 54 12 51 3 -2 1 -30 -2 -61z
m-5095 -44 c0 -56 7 -98 25 -151 14 -40 23 -75 21 -77 -2 -2 -16 31 -30 74
-19 56 -26 99 -26 154 0 46 -5 80 -12 89 -11 12 -10 12 5 1 14 -11 17 -29 17
-90z m278 -1 c0 -8 -6 1 -13 20 -7 19 -13 42 -13 50 0 8 6 -1 13 -20 7 -19 13
-42 13 -50z m3224 -205 c17 -28 48 -273 46 -373 l-1 -107 -7 135 c-7 129 -28
285 -50 360 -5 19 -9 87 -8 150 l1 115 6 -135 c4 -74 9 -140 13 -145z m1173
160 c-10 -36 -20 -63 -22 -61 -2 2 4 33 13 70 10 36 20 63 22 61 3 -2 -4 -34
-13 -70z m-4371 -35 c4 -24 3 -28 -2 -15 -14 31 -24 83 -13 65 5 -8 11 -31 15
-50z m4771 -5 c-4 -31 -9 -54 -12 -51 -3 2 -1 30 2 61 4 31 9 54 12 51 3 -2 1
-30 -2 -61z m149 -139 c-32 -96 -60 -173 -62 -171 -2 2 22 82 54 179 32 96 60
173 62 171 2 -2 -22 -82 -54 -179z m839 157 c-8 -3 -11 -15 -8 -31 5 -26 5
-26 -5 -4 -11 26 -6 42 13 41 9 0 9 -2 0 -6z m-1128 -179 c-3 -17 -12 -39 -20
-50 -13 -17 -13 -14 0 18 8 21 16 70 17 110 l2 73 3 -60 c3 -33 2 -74 -2 -91z
m-4580 -2 c-4 -5 -45 105 -44 121 0 7 11 -17 24 -53 13 -35 22 -66 20 -68z
m4290 111 c-4 -10 -11 -40 -15 -68 -7 -44 -8 -46 -9 -14 -1 35 16 99 26 99 3
0 2 -8 -2 -17z m1402 -25 c-3 -7 -5 -2 -5 12 0 14 2 19 5 13 2 -7 2 -19 0 -25z
m-991 -40 c-7 -50 -135 -412 -143 -404 -2 2 25 82 61 177 36 96 68 198 72 227
4 28 9 52 12 52 2 0 2 -24 -2 -52z m-5786 -26 c13 -11 11 -11 -7 -2 -13 6 -23
15 -23 20 0 4 -2 17 -5 27 -3 10 0 7 7 -7 7 -14 19 -31 28 -38z m6763 13 c-3
-9 -8 -14 -10 -11 -3 3 -2 9 2 15 9 16 15 13 8 -4z m-12 -48 c-10 -9 -11 -8
-5 6 3 10 9 15 12 12 3 -3 0 -11 -7 -18z m-6741 -22 c0 -5 -5 -3 -10 5 -5 8
-10 20 -10 25 0 6 5 3 10 -5 5 -8 10 -19 10 -25z m1210 -249 c38 -86 101 -203
144 -268 10 -16 16 -28 13 -28 -11 0 -97 148 -140 240 -24 52 -67 145 -96 205
-28 61 -51 115 -51 120 0 12 72 -137 130 -269z m4127 234 c-4 -35 -12 -56 -56
-150 l-11 -25 6 25 c3 14 15 44 26 68 11 23 22 60 25 82 3 22 8 40 11 40 2 0
2 -18 -1 -40z m-4498 -105 c28 -71 49 -131 47 -133 -4 -3 -106 252 -106 265 0
15 11 -9 59 -132z m5897 107 c0 -10 -6 -19 -13 -19 -8 0 -9 6 -2 19 5 10 11
18 12 18 2 0 3 -8 3 -18z m-6706 -92 c7 -30 17 -66 23 -80 6 -14 9 -29 8 -34
-1 -6 3 -21 10 -35 22 -47 28 -66 33 -101 l5 -35 -10 35 c-14 43 -23 67 -39
102 -8 16 -10 31 -7 35 4 3 3 11 -2 17 -14 17 -56 176 -42 160 4 -5 13 -34 21
-64z m6695 40 c-3 -5 -11 -10 -16 -10 -6 0 -7 5 -4 10 3 6 11 10 16 10 6 0 7
-4 4 -10z m-1136 -22 c-7 -13 -16 -36 -20 -53 -6 -25 -7 -26 -8 -7 -1 22 24
82 35 82 2 0 -1 -10 -7 -22z m1121 -43 c0 -5 -5 -3 -10 5 -5 8 -10 20 -10 25
0 6 5 3 10 -5 5 -8 10 -19 10 -25z m-4193 -72 c-3 -10 -5 -2 -5 17 0 19 2 27
5 18 2 -10 2 -26 0 -35z m3312 -52 c-23 -50 -44 -90 -46 -88 -2 2 16 45 38 96
23 50 44 90 46 88 2 -2 -16 -45 -38 -96z m844 79 c-3 -12 -8 -19 -11 -16 -5 6
5 36 12 36 2 0 2 -9 -1 -20z m-1129 -82 c-10 -18 -21 -53 -25 -78 l-6 -45 -2
38 c0 21 8 55 19 77 11 22 21 52 21 67 l2 28 4 -27 c2 -15 -4 -42 -13 -60z
m-300 0 c-14 -29 -30 -55 -34 -58 -4 -3 -13 -25 -20 -50 -13 -47 -78 -182
-104 -215 -9 -11 6 23 33 75 27 52 54 114 61 138 6 23 21 58 34 76 12 19 29
48 36 65 7 18 15 30 17 27 2 -2 -8 -28 -23 -58z m1433 26 c-6 -20 -13 -32 -14
-27 -4 11 14 63 21 63 2 0 -1 -16 -7 -36z m-4170 -91 c-2 -21 -4 -6 -4 32 0
39 2 55 4 38 2 -18 2 -50 0 -70z m4140 25 c1 -26 -1 -29 -7 -13 -6 17 -3 45 5
45 1 0 2 -15 2 -32z m-5707 -53 c0 -5 -9 5 -20 23 -26 42 -26 56 0 17 11 -16
20 -34 20 -40z m4685 -7 c-10 -35 -138 -298 -142 -294 -2 2 20 53 50 112 30
60 62 130 72 157 18 48 32 65 20 25z m136 -45 c-11 -21 -20 -35 -21 -31 0 12
33 78 38 74 2 -2 -6 -21 -17 -43z m-4792 -18 c0 -5 -6 1 -14 15 -8 14 -14 30
-14 35 0 6 6 -1 14 -15 8 -14 14 -29 14 -35z m1553 -28 c-3 -16 1 -38 7 -50 8
-15 11 -84 9 -222 l-3 -200 -3 207 c-1 114 -6 209 -11 213 -5 3 -9 36 -8 73 0
47 2 58 7 37 4 -16 5 -43 2 -58z m-2375 -27 c8 -19 21 -47 28 -61 11 -23 11
-26 -4 -22 -10 2 -17 16 -18 35 -1 17 -8 35 -15 40 -7 4 -9 8 -3 8 5 0 4 5 -3
12 -7 7 -11 28 -11 48 2 33 2 33 6 5 2 -16 11 -46 20 -65z m5341 63 c-14 -16
-35 -47 -46 -69 -12 -23 -33 -55 -47 -72 -14 -16 -25 -37 -25 -46 0 -17 -120
-259 -126 -253 -2 1 24 56 56 120 33 65 60 125 60 133 0 9 11 30 25 46 14 17
35 49 47 72 19 38 65 96 77 96 2 0 -7 -12 -21 -27z m-1231 -100 c-2 -21 -4 -4
-4 37 0 41 2 58 4 38 2 -21 2 -55 0 -75z m2349 66 c-9 -19 -15 -29 -16 -22 0
15 22 64 27 60 2 -2 -3 -19 -11 -38z m-907 -98 c-23 -50 -44 -90 -46 -88 -2 2
16 45 38 96 23 50 44 90 46 88 2 -2 -16 -45 -38 -96z m-4689 45 c0 -12 -5 -7
-19 24 -11 24 -11 24 3 6 9 -11 16 -24 16 -30z m5563 17 c-4 -11 -3 -14 5 -9
15 9 10 -3 -52 -144 -56 -126 -79 -171 -84 -165 -2 2 3 16 12 32 39 70 116
258 111 271 -3 7 -3 18 1 23 9 15 14 10 7 -8z m-5472 -162 c27 -46 48 -86 46
-87 -2 -2 -25 33 -51 79 -27 45 -57 96 -68 112 l-19 30 21 -25 c12 -14 44 -63
71 -109z m391 -56 c43 -49 78 -97 78 -105 0 -21 -180 -140 -211 -140 -23 0
-105 75 -179 165 -14 17 15 -12 63 -62 68 -72 95 -93 115 -93 32 0 201 109
201 130 0 8 -38 60 -85 115 -47 55 -90 109 -95 120 -6 11 0 7 13 -10 13 -16
58 -70 100 -120z m2783 -15 l25 -10 -2 -732 -3 -733 -2 731 -3 732 -25 6 c-24
6 -25 9 -23 89 l2 82 3 -78 c4 -72 6 -79 28 -87z m788 95 c-3 -9 -8 -14 -10
-11 -3 3 -2 9 2 15 9 16 15 13 8 -4z m-4843 -40 c0 -7 7 -15 15 -19 8 -3 15
-13 15 -23 0 -10 11 -40 25 -67 14 -27 25 -54 25 -60 -1 -17 -60 107 -60 125
0 9 -7 19 -15 23 -8 3 -15 12 -15 21 0 8 -4 15 -10 15 -5 0 -10 5 -10 11 0 8
5 8 15 -1 8 -7 15 -18 15 -25z m692 9 c-27 -19 -27 -28 -1 -67 l21 -32 -26 30
c-14 17 -26 34 -26 39 0 13 31 46 44 46 6 0 0 -7 -12 -16z m178 -189 c36 -48
72 -100 81 -116 9 -16 27 -38 40 -50 23 -20 23 -20 -8 1 -18 12 -33 27 -33 34
0 7 -16 33 -35 57 -64 81 -195 259 -195 266 0 7 48 -54 150 -192z m3945 152
c-8 -20 -15 -47 -15 -60 0 -14 -7 -31 -17 -38 -9 -8 -22 -27 -29 -44 -7 -17
-13 -23 -14 -13 0 9 11 30 25 46 14 17 25 39 25 51 0 23 30 104 36 98 3 -2 -3
-20 -11 -40z m596 -4 c-11 -21 -20 -35 -21 -31 0 12 33 78 38 74 2 -2 -6 -21
-17 -43z m-261 -203 c-55 -111 -100 -209 -101 -218 0 -13 -2 -13 -6 -3 -5 13
197 435 204 427 2 -2 -41 -94 -97 -206z m199 61 c-23 -50 -44 -90 -46 -88 -2
2 16 45 38 96 23 50 44 90 46 88 2 -2 -16 -45 -38 -96z m-4564 -45 c30 -60 54
-111 52 -113 -2 -1 -32 52 -66 120 -34 67 -57 117 -52 112 6 -6 36 -60 66
-119z m5412 17 c-42 -89 -67 -132 -79 -139 -10 -6 -10 -5 -1 7 6 8 30 51 52
97 44 87 66 115 28 35z m-1477 -52 c-28 -56 -35 -52 -8 4 12 24 23 43 26 41 2
-2 -6 -22 -18 -45z m272 -59 c-13 -56 -26 -101 -29 -99 -4 5 22 124 38 175 21
64 16 26 -9 -76z m-4846 33 c-3 -8 6 -24 19 -37 14 -13 25 -30 25 -39 0 -9 9
-28 20 -42 11 -14 20 -28 20 -32 0 -4 10 -21 21 -38 l22 -32 -27 27 c-14 15
-26 34 -26 43 0 8 -7 15 -15 15 -8 0 -14 3 -14 8 4 21 -15 72 -27 72 -8 0 -14
7 -14 15 0 8 -4 15 -9 15 -5 0 -8 11 -7 24 0 13 5 22 9 19 5 -3 6 -11 3 -18z
m5127 -68 c-14 -37 -28 -65 -30 -63 -2 2 8 34 23 70 14 37 28 65 30 63 2 -2
-8 -33 -23 -70z m-2966 -504 c-1 -104 -2 -19 -2 187 0 206 1 291 2 188 2 -104
2 -272 0 -375z m2380 515 c-3 -7 -5 -2 -5 12 0 14 2 19 5 13 2 -7 2 -19 0 -25z
m-3763 -178 c4 -14 -13 17 -38 69 -25 51 -46 96 -46 100 1 10 77 -142 84 -169z
m3752 90 c-5 -62 -42 -187 -52 -178 -2 2 5 28 16 56 11 28 23 83 26 122 4 38
9 70 12 70 3 0 2 -31 -2 -70z m1425 43 c-12 -20 -14 -14 -5 12 4 9 9 14 11 11
3 -2 0 -13 -6 -23z m-5043 -92 l-1 -66 -6 71 c-3 39 -10 78 -16 85 -5 8 -2 6
8 -4 13 -15 17 -35 15 -86z m5006 16 c-35 -63 -41 -60 -8 4 14 28 27 49 30 47
2 -3 -7 -26 -22 -51z m-1122 0 c-15 -16 -23 -38 -24 -68 l-1 -44 -4 43 c-3 33
1 49 19 71 13 16 25 27 27 25 3 -2 -5 -14 -17 -27z m287 -6 c-6 -18 -13 -30
-15 -28 -2 2 1 18 7 36 6 18 13 30 15 28 2 -2 -1 -18 -7 -36z m-205 -75 c-10
-31 -19 -54 -22 -52 -2 2 4 29 14 60 10 31 19 54 22 52 2 -2 -4 -29 -14 -60z
m-4699 -43 c-2 -8 5 -17 19 -23 16 -6 25 -19 28 -39 3 -17 1 -31 -4 -31 -4 0
-8 14 -8 31 0 23 -4 30 -14 26 -15 -6 -31 18 -27 41 1 6 -3 12 -9 12 -5 0 -10
6 -10 14 0 8 -7 16 -15 20 -8 3 -15 11 -15 17 0 7 14 -3 30 -21 17 -19 28 -40
25 -47z m4874 38 c-6 -18 -13 -30 -15 -28 -2 2 1 18 7 36 6 18 13 30 15 28 2
-2 -1 -18 -7 -36z m822 2 c-12 -20 -14 -14 -5 12 4 9 9 14 11 11 3 -2 0 -13
-6 -23z m-4972 -133 c10 -19 21 -46 25 -60 4 -14 -7 3 -22 36 -16 34 -34 64
-40 68 -6 3 -25 25 -42 49 -30 39 -29 39 14 -8 25 -27 55 -66 65 -85z m4944
115 c-3 -9 -8 -14 -10 -11 -3 3 -2 9 2 15 9 16 15 13 8 -4z m-1 -50 c-15 -30
-20 -34 -25 -21 -4 9 -3 15 2 12 5 -3 14 8 21 24 7 17 15 29 17 26 2 -2 -4
-21 -15 -41z m-4908 -80 c4 -11 0 -6 -8 10 -8 17 -15 48 -14 70 0 39 1 39 8
-10 4 -27 11 -59 14 -70z m3816 50 c-6 -31 -14 -55 -16 -52 -2 2 1 29 7 61 7
31 14 54 16 52 3 -2 -1 -30 -7 -61z m269 16 c-6 -18 -13 -30 -15 -28 -2 2 1
18 7 36 6 18 13 30 15 28 2 -2 -1 -18 -7 -36z m-180 -30 c-7 -23 -14 -39 -16
-37 -3 2 1 23 8 45 7 23 14 39 16 37 3 -2 -1 -23 -8 -45z m-399 -81 c-15 -63
-28 -110 -29 -103 -2 22 48 227 54 221 2 -2 -9 -55 -25 -118z m1351 72 c-14
-26 -14 -45 -1 -37 6 4 5 -6 -2 -22 -17 -40 -21 -43 -38 -32 -13 9 -13 10 2 6
11 -4 18 2 22 16 7 27 -2 36 -15 17 -14 -20 -8 -3 16 42 10 21 20 36 23 34 2
-2 -1 -13 -7 -24z m-802 -41 c-6 -18 -13 -30 -15 -28 -2 2 1 18 7 36 6 18 13
30 15 28 2 -2 -1 -18 -7 -36z m-4745 16 c-2 -7 7 -30 20 -50 19 -27 21 -34 7
-26 -21 14 -45 65 -36 79 9 14 15 12 9 -3z m4475 -56 c-6 -18 -13 -30 -15 -28
-2 2 1 18 7 36 6 18 13 30 15 28 2 -2 -1 -18 -7 -36z m85 -25 c-10 -31 -19
-54 -22 -52 -2 2 4 29 14 60 10 31 19 54 22 52 2 -2 -4 -29 -14 -60z m104
-149 c-34 -91 -64 -164 -66 -162 -2 2 24 78 58 170 35 91 64 164 66 162 2 -2
-24 -78 -58 -170z m772 62 c-27 -46 -50 -80 -50 -76 0 12 93 167 98 163 1 -2
-20 -41 -48 -87z m77 74 c-94 -194 -181 -362 -185 -359 -2 3 15 40 37 83 23
43 41 84 41 91 0 7 5 12 11 12 5 0 7 5 4 10 -3 6 -2 10 4 10 6 0 8 7 5 15 -4
8 -1 15 5 15 6 0 11 7 11 15 0 8 5 15 11 15 6 0 8 7 5 16 -3 8 -2 12 4 9 5 -3
14 13 21 35 7 22 16 40 21 40 5 0 8 -3 5 -7z m-5448 -43 c0 -10 -3 -8 -9 5
-12 27 -12 43 0 25 5 -8 9 -22 9 -30z m4382 -10 c-6 -25 -23 -56 -43 -77 -28
-29 -34 -44 -39 -96 l-6 -62 -1 57 c-2 53 1 60 37 101 25 30 40 59 45 87 4 24
9 40 12 38 2 -3 0 -24 -5 -48z m78 -49 c-7 -23 -14 -39 -16 -37 -3 2 1 23 8
45 7 23 14 39 16 37 3 -2 -1 -23 -8 -45z m-4434 28 c11 -16 1 -19 -13 -3 -7 8
-8 14 -3 14 5 0 13 -5 16 -11z m4070 -39 c-4 -17 -9 -30 -11 -27 -2 2 -1 18 2
36 4 17 9 30 11 27 3 -2 2 -19 -2 -36z m-4032 -24 c16 -12 16 -14 2 -20 -9 -3
-13 -2 -10 3 3 6 -3 14 -12 20 -10 6 -13 10 -8 10 6 0 18 -6 28 -13z m4014
-83 c-2 -16 -4 -5 -4 22 0 28 2 40 4 28 2 -13 2 -35 0 -50z m344 -8 c-12 -37
-22 -79 -22 -94 -2 -23 -2 -24 -6 -3 -4 22 36 176 44 168 3 -2 -5 -34 -16 -71z
m874 14 c-13 -24 -25 -51 -25 -60 0 -9 -7 -23 -17 -30 -14 -13 -15 -12 -6 6 5
11 22 46 38 78 15 32 29 56 32 54 2 -2 -8 -24 -22 -48z m-5175 -11 c11 -23 20
-44 20 -47 0 -9 -25 32 -38 62 -18 43 -5 32 18 -15z m3947 -95 c-2 -16 -4 -5
-4 22 0 28 2 40 4 28 2 -13 2 -35 0 -50z m-3911 38 c-3 -5 1 -14 9 -21 8 -7
15 -17 15 -23 0 -5 -9 0 -20 13 -17 20 -19 40 -4 40 3 0 3 -4 0 -9z m1708
-205 c10 -16 13 -25 6 -21 -25 15 -40 75 -38 152 l1 78 6 -91 c4 -63 12 -98
25 -118z m2416 114 l-11 -25 6 25 c2 14 6 39 6 55 l2 30 4 -30 c2 -17 -1 -42
-7 -55z m245 -5 c-4 -31 -9 -54 -12 -51 -3 2 -1 30 2 61 4 31 9 54 12 51 3 -2
1 -30 -2 -61z m719 40 c-4 -8 -1 -21 5 -29 9 -10 6 -25 -12 -61 -13 -25 -28
-46 -33 -45 -5 1 -10 -4 -13 -11 -2 -7 1 -9 8 -5 14 9 -2 -36 -24 -67 -20 -29
-19 -13 1 18 9 14 13 33 9 44 -4 14 0 24 14 33 12 7 21 19 21 27 0 8 8 23 18
34 12 15 14 21 5 24 -14 5 -18 35 -6 46 10 11 13 8 7 -8z m-1187 -67 c-2 -13
-4 -5 -4 17 -1 22 1 32 4 23 2 -10 2 -28 0 -40z m330 -40 c-2 -18 -4 -4 -4 32
0 36 2 50 4 33 2 -18 2 -48 0 -65z m-4180 60 c-3 -8 -6 -5 -6 6 -1 11 2 17 5
13 3 -3 4 -12 1 -19z m27 -33 c3 -8 1 -15 -4 -15 -6 0 -10 7 -10 15 0 8 2 15
4 15 2 0 6 -7 10 -15z m4026 -90 l-7 -100 -1 80 c-1 67 5 134 12 123 1 -2 -1
-48 -4 -103z m944 79 c3 -8 2 -12 -4 -9 -6 3 -10 10 -10 16 0 14 7 11 14 -7z
m-1157 -36 c-3 -7 -5 -2 -5 12 0 14 2 19 5 13 2 -7 2 -19 0 -25z m460 -15 c-3
-10 -5 -4 -5 12 0 17 2 24 5 18 2 -7 2 -21 0 -30z m-470 -170 c-2 -32 -3 -6
-3 57 0 63 1 89 3 58 2 -32 2 -84 0 -115z m333 -28 c-7 -102 -15 -183 -18
-181 -2 3 1 89 9 191 7 101 15 183 17 180 3 -2 -1 -88 -8 -190z m-4086 169 c3
-8 2 -12 -4 -9 -6 3 -10 10 -10 16 0 14 7 11 14 -7z m1886 -18 c0 -19 -4 -38
-10 -41 -6 -4 -11 -67 -12 -148 l-2 -142 -3 139 c-2 87 0 143 7 150 5 5 10 23
10 39 0 22 -4 27 -17 23 -73 -20 -163 -37 -179 -33 -15 4 -13 5 6 6 14 1 59
10 100 20 102 26 100 26 100 -13z m2320 -70 c-8 -48 -15 -84 -18 -82 -2 3 1
43 9 91 7 47 14 83 17 81 2 -3 -1 -43 -8 -90z m-2564 66 c-10 -2 -22 0 -28 6
-6 6 0 7 19 4 21 -5 23 -7 9 -10z m-1612 -11 c4 -5 -3 -7 -14 -4 -23 6 -26 13
-6 13 8 0 17 -4 20 -9z m13 -41 c3 -10 2 -11 -4 -4 -4 6 -15 14 -23 17 -11 5
-9 6 4 4 11 -1 21 -9 23 -17z m4828 1 c3 -5 2 -12 -3 -15 -5 -3 -9 1 -9 9 0
17 3 19 12 6z m-4791 -61 c10 -13 9 -13 -6 -1 -10 7 -17 23 -17 35 1 20 2 20
6 1 3 -11 10 -27 17 -35z m3883 -487 c-1 -98 -2 -20 -2 172 -1 193 1 273 2
178 2 -94 2 -252 0 -350z m887 483 c-8 -14 -17 -31 -18 -38 -7 -41 -29 -87
-39 -81 -7 4 -8 0 -4 -11 4 -9 3 -15 -2 -12 -5 3 -12 -6 -16 -21 -6 -24 -8
-26 -16 -10 -13 22 -26 14 -44 -26 -11 -23 -13 -25 -9 -7 4 14 15 35 24 47 16
21 19 21 25 5 6 -15 8 -14 16 6 5 13 6 28 3 33 -3 5 -2 9 3 8 25 -4 35 3 30
21 -3 11 -1 18 4 14 5 -3 10 0 10 5 3 21 4 26 18 59 7 17 17 32 22 32 5 0 2
-11 -7 -24z m-4750 -31 c3 -8 1 -15 -4 -15 -6 0 -10 7 -10 15 0 8 2 15 4 15 2
0 6 -7 10 -15z m4081 -80 c-4 -31 -9 -54 -12 -51 -3 2 -1 30 2 61 4 31 9 54
12 51 3 -2 1 -30 -2 -61z m-4035 -2 c0 -6 7 -19 16 -27 8 -9 11 -16 4 -16 -6
0 -16 12 -23 28 -6 15 -14 29 -18 32 -3 3 -9 14 -12 25 -6 16 -3 15 13 -5 11
-14 20 -30 20 -37z m3618 -83 c-1 -118 -6 -101 -10 37 -2 50 0 86 4 80 4 -7 7
-59 6 -117z m-441 -107 c-2 -38 -3 -7 -3 67 0 74 1 105 3 68 2 -38 2 -98 0
-135z m-1532 70 c37 -93 39 -105 45 -243 l6 -145 4 200 5 200 3 -185 c2 -102
0 -208 -3 -236 l-6 -52 -47 14 c-68 21 -107 64 -137 153 -28 81 -42 205 -31
266 8 38 83 125 109 125 8 0 30 -41 52 -97z m2372 -175 c-1 -46 -3 -11 -3 77
0 88 2 125 3 83 2 -42 2 -114 0 -160z m601 206 c14 5 13 3 -2 -8 -11 -10 -16
-21 -12 -32 5 -14 4 -15 -9 -4 -18 15 -20 0 -2 -20 10 -12 9 -12 -5 -1 -15 11
-17 9 -16 -21 0 -39 -13 -97 -36 -153 l-16 -40 5 35 c3 19 6 40 7 47 1 7 5 10
8 8 4 -3 8 7 9 20 4 57 6 63 15 58 5 -4 7 4 3 18 -3 13 1 45 11 72 9 27 19 41
20 32 3 -10 10 -14 20 -11z m-4543 -14 c3 -6 -1 -7 -9 -4 -18 7 -21 14 -7 14
6 0 13 -4 16 -10z m620 -122 c14 -2 20 -12 21 -31 1 -25 1 -25 -3 -2 -3 15
-11 25 -21 25 -10 0 -44 28 -77 63 l-60 62 60 -57 c33 -31 69 -58 80 -60z
m3222 20 c-2 -18 -4 -4 -4 32 0 36 2 50 4 33 2 -18 2 -48 0 -65z m598 7 c-13
-33 -25 -53 -25 -45 0 8 9 35 20 59 11 24 21 51 21 60 1 13 2 13 5 1 2 -8 -7
-42 -21 -75z m-4443 58 c-1 -4 7 -17 16 -28 17 -20 17 -20 -4 -2 -11 9 -21 24
-21 32 0 8 2 13 5 11 2 -2 4 -8 4 -13z m492 -40 c3 -26 8 -61 11 -78 l5 -30
-10 30 c-14 42 -28 135 -20 130 4 -2 10 -26 14 -52z m-452 -35 c-8 -8 -9 -4
-5 13 4 13 8 18 11 10 2 -7 -1 -18 -6 -23z m3515 -40 c-2 -13 -4 -3 -4 22 0
25 2 35 4 23 2 -13 2 -33 0 -45z m-3504 7 c-3 -9 -8 -14 -10 -11 -3 3 -2 9 2
15 9 16 15 13 8 -4z m3784 -77 c-2 -18 -4 -6 -4 27 0 33 2 48 4 33 2 -15 2
-42 0 -60z m-3755 37 c3 -13 2 -22 -2 -20 -4 3 -10 16 -12 30 -3 13 -2 22 2
20 4 -3 10 -16 12 -30z m3014 -142 c-4 -10 -37 -13 -141 -13 l-135 0 0 -70 0
-70 45 0 c35 0 48 -5 59 -22 17 -26 42 -145 50 -233 3 -34 -3 -13 -14 50 -10
61 -25 128 -32 150 -13 39 -14 40 -65 43 l-53 3 0 80 0 79 140 0 140 0 2 88 2
87 3 -79 c2 -44 2 -85 -1 -93z m1294 56 c-17 -57 -39 -146 -50 -198 -19 -95
-34 -136 -23 -65 12 82 91 379 99 372 2 -3 -10 -51 -26 -109z m-843 -151 c-1
-46 -3 -9 -3 82 0 91 2 128 3 83 2 -46 2 -120 0 -165z m-3003 101 c10 -41 16
-93 13 -115 l-4 -39 -1 45 c-1 25 -8 70 -16 100 -16 63 -31 165 -17 115 5 -16
16 -64 25 -106z m96 -13 c0 -140 -1 -146 -25 -173 -13 -15 -25 -23 -25 -17 0
6 9 19 20 29 18 16 20 31 20 162 0 78 2 143 5 143 3 0 5 -65 5 -144z m203 100
c29 -13 70 -38 90 -56 35 -30 37 -35 36 -89 -1 -31 -5 -69 -9 -86 -4 -16 -5 8
-2 55 l5 86 -34 29 c-39 32 -108 65 -159 76 -31 6 -32 7 -8 8 15 0 51 -10 81
-23z m-747 -11 c4 -14 4 -29 0 -32 -3 -4 -6 3 -6 13 0 11 -5 25 -12 32 -9 9
-9 12 0 12 6 0 14 -11 18 -25z m637 -152 l-10 -158 1 167 c0 96 5 163 10 158
5 -5 4 -76 -1 -167z m3094 35 c-2 -18 -4 -4 -4 32 0 36 2 50 4 33 2 -18 2 -48
0 -65z m623 76 c0 -8 -5 -12 -10 -9 -6 4 -8 11 -5 16 9 14 15 11 15 -7z m-536
-962 c-15 -40 -29 -71 -31 -69 -2 3 8 35 22 72 l25 67 2 437 3 436 2 -435 3
-435 -26 -73z m-3789 918 c-4 -6 0 -22 9 -35 9 -13 16 -28 16 -32 0 -4 -10 6
-21 24 -18 28 -19 53 -3 53 3 0 2 -5 -1 -10z m4302 -57 c-3 -10 -5 -4 -5 12 0
17 2 24 5 18 2 -7 2 -21 0 -30z m-617 -433 l-6 -415 -2 326 c-2 266 5 520 13
507 1 -2 -2 -190 -5 -418z m-3653 388 c-3 -8 -6 -5 -6 6 -1 11 2 17 5 13 3 -3
4 -12 1 -19z m12 -52 c-3 -3 -11 5 -18 17 -13 21 -12 21 5 5 10 -10 16 -20 13
-22z m3568 -83 c-2 -21 -4 -4 -4 37 0 41 2 58 4 38 2 -21 2 -55 0 -75z m-2131
82 c16 -8 22 -15 14 -15 -9 0 -20 4 -25 9 -6 5 -21 11 -35 14 -21 4 -22 4 -4
6 12 0 35 -6 50 -14z m-1034 -24 c2 -17 1 -28 -4 -25 -8 5 -12 54 -4 54 2 0 6
-13 8 -29z m939 -8 c-10 -21 -24 -71 -31 -111 -7 -39 -15 -70 -18 -68 -15 16
44 216 63 216 3 0 -3 -17 -14 -37z m-564 -30 c-3 -10 -5 -2 -5 17 0 19 2 27 5
18 2 -10 2 -26 0 -35z m-758 -8 c0 -5 -4 -3 -9 5 -5 8 -9 22 -9 30 0 16 17
-16 18 -35z m3348 -17 c-2 -13 -4 -3 -4 22 0 25 2 35 4 23 2 -13 2 -33 0 -45z
m-2820 -70 c-2 -18 -4 -6 -4 27 0 33 2 48 4 33 2 -15 2 -42 0 -60z m-513 24
c12 -73 17 -126 11 -120 -3 3 -8 28 -11 54 -3 27 -9 64 -14 82 -5 18 -5 30 0
27 5 -3 11 -22 14 -43z m730 -21 c-4 -34 -9 -60 -11 -57 -3 3 -2 32 2 66 4 34
9 59 12 57 2 -3 1 -33 -3 -66z m2593 -173 c-1 -40 -3 -8 -3 72 0 80 2 112 3
73 2 -40 2 -106 0 -145z m776 71 c-4 -4 -6 27 -3 69 l5 77 3 -69 c2 -38 -1
-73 -5 -77z m-563 -234 l-9 -60 4 64 c3 35 6 132 7 215 l2 151 3 -155 c2 -85
-1 -182 -7 -215z m-3033 228 c-2 -16 -4 -5 -4 22 0 28 2 40 4 28 2 -13 2 -35
0 -50z m210 -96 c-2 -23 -3 -1 -3 48 0 50 1 68 3 42 2 -26 2 -67 0 -90z m539
55 c-5 -65 0 -115 29 -285 30 -173 34 -213 25 -259 l-9 -53 4 55 c3 36 -8 126
-30 259 -29 168 -34 218 -29 283 4 43 9 78 12 78 3 0 2 -35 -2 -78z m-1222
-22 c3 -25 6 -66 5 -93 0 -26 3 -52 7 -58 8 -13 19 -387 11 -379 -2 3 -7 87
-10 186 -2 100 -7 186 -11 193 -4 6 -7 32 -6 58 0 27 -4 72 -8 101 -5 29 -5
49 -1 45 4 -5 10 -28 13 -53z m4066 -50 l-7 -65 -1 52 c-2 43 6 91 12 81 1 -2
-1 -32 -4 -68z m-3603 -238 c-1 -53 -3 -7 -3 103 0 110 2 154 3 97 2 -57 2
-147 0 -200z m2283 233 c-6 -49 -8 -53 -9 -20 -1 37 8 89 14 83 2 -2 0 -30 -5
-63z m-2073 -312 c-1 -54 -3 -10 -3 97 0 107 2 151 3 98 2 -54 2 -142 0 -195z
m2610 185 c-2 -18 -4 -4 -4 32 0 36 2 50 4 33 2 -18 2 -48 0 -65z m-562 -13
c-10 -36 -20 -63 -22 -61 -2 2 4 33 13 70 10 36 20 63 22 61 3 -2 -4 -34 -13
-70z m1347 -22 c2 -44 0 -79 -3 -77 -4 2 -7 43 -7 91 -1 108 6 98 10 -14z
m-797 -130 c-3 -71 -11 -144 -17 -163 -30 -95 -134 -208 -213 -230 -25 -7 -48
-11 -50 -8 -3 2 17 10 44 17 59 15 120 65 165 135 46 72 54 103 61 249 4 70 9
127 12 127 3 0 2 -57 -2 -127z m215 -23 l-11 -25 6 25 c2 14 6 50 7 80 l2 55
3 -55 c2 -31 -1 -67 -7 -80z m-801 10 c-10 -76 -9 -220 5 -420 l5 -65 -11 70
c-13 84 -16 391 -5 458 14 80 18 47 6 -43z m1384 -42 c-3 -24 -9 -65 -14 -93
-6 -41 -7 -37 -3 25 5 72 12 110 19 110 2 0 1 -19 -2 -42z m-3606 -20 c-3 -8
-6 -5 -6 6 -1 11 2 17 5 13 3 -3 4 -12 1 -19z m3660 -20 c-3 -8 -6 -5 -6 6 -1
11 2 17 5 13 3 -3 4 -12 1 -19z m-666 -24 c-5 -16 -10 -21 -10 -12 -1 18 10
51 15 45 2 -1 -1 -16 -5 -33z m100 9 c-12 -20 -14 -14 -5 12 4 9 9 14 11 11 3
-2 0 -13 -6 -23z m-3046 -168 c5 -17 5 -17 -4 -4 -14 21 -41 136 -40 169 0 14
9 -13 19 -60 10 -47 21 -94 25 -105z m3607 123 c-6 -6 -7 0 -4 19 5 21 7 23
10 9 2 -10 0 -22 -6 -28z m-3413 -82 c7 -16 10 -31 7 -33 -7 -8 -36 91 -35
121 1 25 3 22 9 -14 5 -25 13 -58 19 -74z m2832 77 c-12 -20 -14 -14 -5 12 4
9 9 14 11 11 3 -2 0 -13 -6 -23z m-98 -48 c-13 -22 -144 -155 -164 -166 -9 -4
24 31 72 79 70 69 89 94 90 117 1 23 3 25 6 8 2 -12 0 -29 -4 -38z m187 -4
c-29 -42 -36 -39 -8 3 13 19 24 33 26 31 3 -2 -6 -18 -18 -34z m-205 -91 c-60
-61 -112 -110 -115 -110 -4 0 44 51 104 113 61 61 113 111 115 109 3 -1 -44
-52 -104 -112z m-3361 -65 c8 -27 13 -51 11 -53 -9 -9 -37 108 -40 168 l-4 65
9 -65 c5 -36 16 -87 24 -115z m4053 153 c-3 -8 -6 -5 -6 6 -1 11 2 17 5 13 3
-3 4 -12 1 -19z m-70 -25 c-3 -10 -5 -4 -5 12 0 17 2 24 5 18 2 -7 2 -21 0
-30z m-2780 -100 c-2 -21 -4 -4 -4 37 0 41 2 58 4 38 2 -21 2 -55 0 -75z m416
86 c25 -7 41 -18 47 -34 5 -13 11 -129 14 -257 2 -128 2 -222 0 -208 l-5 25
-117 -6 c-64 -4 -120 -5 -124 -3 -4 3 -9 -21 -11 -53 -2 -32 -4 32 -4 142 0
110 -3 225 -7 256 -8 57 6 107 36 125 36 22 116 29 171 13z m2416 -33 c-12
-44 -53 -121 -80 -150 -10 -11 -40 -52 -66 -92 -27 -40 -66 -101 -88 -134 -22
-34 -44 -69 -50 -78 -5 -9 -24 -36 -41 -59 -30 -41 -31 -42 -31 -15 0 15 2 21
4 15 5 -13 53 37 53 55 0 5 17 31 39 58 21 27 46 65 56 84 10 19 46 74 80 121
50 69 60 88 48 95 -12 8 -13 17 -2 59 6 28 15 54 20 59 4 5 1 -17 -7 -49 -25
-94 -1 -89 42 9 31 72 39 79 23 22z m-514 11 c-8 -13 -28 -29 -43 -35 -22 -10
-24 -9 -8 1 10 6 28 22 39 35 27 29 32 28 12 -1z m-1250 -1 c28 -7 49 -17 48
-24 -2 -6 3 -9 10 -6 7 2 34 -9 60 -26 l47 -30 -2 -112 -2 -113 -5 113 -6 114
-42 25 c-24 14 -43 23 -43 20 0 -3 18 -16 40 -28 37 -21 40 -26 40 -66 0 -53
-52 -132 -113 -170 -31 -19 -137 -63 -153 -63 -1 0 -5 15 -7 33 -2 17 -5 -70
-5 -195 l-2 -227 58 -4 57 -3 -62 -2 -63 -2 -2 248 c-2 270 -1 350 8 460 l6
72 41 -1 c23 0 65 -6 92 -13z m-264 -158 c2 -68 -1 -234 -6 -370 l-8 -248
-101 2 -101 2 98 3 97 4 0 143 c0 79 2 185 4 237 5 92 5 93 -4 21 -4 -40 -10
-75 -12 -77 -1 -1 -39 -5 -84 -7 l-81 -4 -13 192 c-6 106 -9 206 -5 223 l6 30
97 3 c83 3 98 1 104 -14 4 -9 8 -72 9 -140z m-1251 12 c17 -25 29 -51 28 -59
-3 -14 -146 -67 -155 -57 -2 2 30 14 71 26 42 13 76 28 76 34 0 13 -41 77 -90
140 -16 21 -30 43 -30 49 0 9 35 -37 100 -133z m-195 -24 c30 -35 55 -66 55
-70 0 -4 -27 25 -59 62 -61 71 -101 129 -101 147 0 6 11 -10 25 -33 14 -24 50
-72 80 -106z m2885 119 c0 -2 -18 -14 -40 -25 -22 -11 -40 -18 -40 -15 0 2 17
13 38 24 42 23 42 23 42 16z m-90 -49 c0 -2 -25 -18 -56 -36 -44 -25 -59 -29
-68 -19 -8 9 -8 10 1 5 7 -4 36 7 65 24 56 31 58 32 58 26z m-2162 -298 c-1
-161 -4 -241 -5 -178 l-4 115 -130 -3 c-141 -3 -144 -2 -87 46 15 13 28 33 28
43 0 46 28 76 95 103 77 31 82 31 88 9 3 -10 5 21 6 70 0 48 3 87 6 87 3 0 4
-132 3 -292z m1972 278 c-14 -7 -36 -16 -50 -20 -14 -3 -7 3 15 13 45 22 73
27 35 7z m-270 -16 c-14 -4 -36 -8 -50 -8 -22 0 -22 1 5 8 17 4 39 8 50 8 16
0 15 -2 -5 -8z m-80 -15 c0 -2 -13 -11 -30 -20 -38 -19 -40 -11 -2 9 31 17 32
18 32 11z m260 -5 c-8 -5 -24 -9 -35 -9 -16 1 -16 2 5 9 35 11 48 11 30 0z
m-3012 -63 c6 -21 7 -35 1 -32 -5 4 -9 14 -9 24 0 9 -5 22 -12 29 -7 7 -8 12
-4 12 5 0 3 8 -5 18 -12 15 -11 16 3 2 9 -8 21 -32 26 -53z m2905 38 c-29 -8
-67 -20 -85 -28 -20 -8 -43 -10 -58 -6 -24 7 -24 7 5 7 17 0 55 9 85 20 30 11
66 21 80 21 14 0 2 -7 -27 -14z m-176 -21 c-3 -3 -12 -4 -19 -1 -8 3 -5 6 6 6
11 1 17 -2 13 -5z m-150 -211 c-2 -37 -3 -9 -3 62 0 72 1 102 3 68 2 -34 2
-93 0 -130z m-2487 50 c0 -15 147 -196 165 -203 7 -3 23 -17 35 -32 24 -32 35
-34 56 -14 12 13 12 16 -3 25 -10 5 -14 13 -10 17 8 8 38 -27 31 -38 -8 -12
61 -46 171 -84 104 -35 119 -38 275 -44 l165 -6 -150 -2 -149 -2 -166 54 c-91
29 -177 56 -191 60 -14 3 -31 17 -39 31 -7 14 -19 25 -25 25 -15 0 -157 176
-179 222 -10 20 -26 44 -37 54 -10 9 -19 22 -19 27 0 5 16 -10 35 -34 19 -24
35 -49 35 -56z m2287 -280 c-1 -60 -3 -11 -3 107 0 118 2 167 3 108 2 -60 2
-156 0 -215z m-1917 225 c0 -6 -7 -7 -16 -4 -9 3 -18 6 -20 6 -3 0 -3 4 1 10
7 11 35 2 35 -12z m-19 -108 c5 0 6 7 3 15 -4 10 0 15 10 15 9 0 19 -6 22 -14
3 -8 19 -18 35 -21 16 -4 27 -10 25 -14 -8 -12 -155 -45 -163 -37 -5 5 -3 11
3 13 7 2 10 13 7 24 -3 11 2 28 13 40 l19 21 9 -21 c5 -12 13 -21 17 -21z
m1306 -162 c-1 -40 -3 -10 -3 67 0 77 1 110 3 73 2 -37 2 -100 0 -140z m936
-35 c51 4 157 9 237 11 140 4 138 4 -50 -9 -107 -7 -216 -14 -242 -14 l-48 -1
2 128 2 127 3 -124 4 -124 92 6z m808 210 c6 -16 9 -47 7 -69 -2 -30 0 -40 9
-37 7 3 10 9 7 14 -3 5 2 6 11 3 11 -5 13 -10 5 -19 -8 -9 -7 -14 2 -18 7 -3
4 -5 -7 -5 -11 -1 -32 -4 -47 -8 -19 -4 -28 -2 -28 5 0 7 5 9 10 6 6 -3 10 -3
10 2 0 4 3 18 6 31 6 19 3 22 -25 22 -36 0 -37 2 -15 36 9 13 14 27 10 31 -7
7 12 33 25 33 5 0 14 -12 20 -27z m-1864 -130 c-2 -27 -3 -5 -3 47 0 52 1 74
3 48 2 -27 2 -69 0 -95z m1965 52 c-5 -30 -42 -56 -38 -27 2 9 -2 20 -8 24 -6
4 -7 10 -3 15 9 9 28 -17 21 -29 -3 -4 0 -8 5 -8 6 0 11 8 11 18 0 16 8 32 15
32 1 0 0 -11 -3 -25z m-2245 -82 c-2 -21 -4 -6 -4 32 0 39 2 55 4 38 2 -18 2
-50 0 -70z m2086 10 c-7 -2 -21 -2 -30 0 -10 3 -4 5 12 5 17 0 24 -2 18 -5z
m-118 -19 c-38 -7 -81 -12 -95 -12 -33 1 97 26 135 26 17 0 -1 -6 -40 -14z
m-1698 -76 c-2 -13 -4 -3 -4 22 0 25 2 35 4 23 2 -13 2 -33 0 -45z m1546 55
c-18 -2 -48 -2 -65 0 -18 2 -4 4 32 4 36 0 50 -2 33 -4z m-2023 -28 c0 -25 -1
-25 -82 -23 l-83 2 78 3 c69 3 77 6 77 23 0 11 2 20 5 20 3 0 5 -11 5 -25z
m333 -28 l132 -3 -141 -2 -141 -2 6 28 c5 24 6 25 9 5 3 -22 8 -23 135 -26z
m840 6 c-24 -2 -62 -2 -85 0 -24 2 -5 4 42 4 47 0 66 -2 43 -4z"/>
<path d="M3168 12323 c7 -3 16 -2 19 1 4 3 -2 6 -13 5 -11 0 -14 -3 -6 -6z"/>
<path d="M3970 12280 c0 -5 7 -10 15 -10 8 0 15 5 15 10 0 6 -7 10 -15 10 -8
0 -15 -4 -15 -10z"/>
<path d="M3730 12160 c0 -5 5 -10 10 -10 6 0 10 5 10 10 0 6 -4 10 -10 10 -5
0 -10 -4 -10 -10z"/>
<path d="M3350 12090 c0 -5 5 -10 10 -10 6 0 10 5 10 10 0 6 -4 10 -10 10 -5
0 -10 -4 -10 -10z"/>
<path d="M3410 11980 c0 -5 7 -10 15 -10 8 0 15 5 15 10 0 6 -7 10 -15 10 -8
0 -15 -4 -15 -10z"/>
<path d="M3810 11960 c0 -5 5 -10 10 -10 6 0 10 5 10 10 0 6 -4 10 -10 10 -5
0 -10 -4 -10 -10z"/>
<path d="M3428 4403 c12 -2 30 -2 40 0 9 3 -1 5 -23 4 -22 0 -30 -2 -17 -4z"/>
<path d="M3368 4393 c6 -2 18 -2 25 0 6 3 1 5 -13 5 -14 0 -19 -2 -12 -5z"/>
<path d="M3327 4361 c-15 -27 -17 -44 -11 -95 l7 -61 14 34 c8 19 13 58 11 95
l-3 61 -18 -34z"/>
<path d="M3371 4254 c0 -11 3 -14 6 -6 3 7 2 16 -1 19 -3 4 -6 -2 -5 -13z"/>
<path d="M4061 4386 c2 -2 27 -6 54 -9 34 -4 42 -3 25 3 -25 8 -87 13 -79 6z"/>
<path d="M4178 4363 c7 -3 16 -2 19 1 4 3 -2 6 -13 5 -11 0 -14 -3 -6 -6z"/>
<path d="M4033 4225 c0 -33 2 -45 4 -27 2 18 2 45 0 60 -2 15 -4 0 -4 -33z"/>
<path d="M3883 4315 c0 -22 2 -30 4 -17 2 12 2 30 0 40 -3 9 -5 -1 -4 -23z"/>
<path d="M3891 4164 c0 -11 3 -14 6 -6 3 7 2 16 -1 19 -3 4 -6 -2 -5 -13z"/>
<path d="M3712 3985 c0 -16 2 -22 5 -12 2 9 2 23 0 30 -3 6 -5 -1 -5 -18z"/>
</g>
</svg>
